# xmcd
#
# Track frame offsets: 
#        150
#        10714
#        23176
#        39231
#        52148
#        63725
#        75639
#        92091
#        102311
#        116698
#        131122
#
# Disc length: 1911 seconds
#
# Revision: 11
# Processed by: cddbd v1.5.2PL0 Copyright (c) Steve Scherf et al.
# Submitted via: ExactAudioCopy v0.99pb4
#
DISCID=8f07750b
DTITLE=George Strait - Pure Country Original Motion Picture Soundtrack
DYEAR=1992
DGENRE=Country
TTITLE0=Heartland
TTITLE1=Baby Your Baby
TTITLE2=I Cross My Heart
TTITLE3=When Did You Stop Loving Me
TTITLE4=She Lays It All On The Line
TTITLE5=Overnight Male
TTITLE6=Last In Love
TTITLE7=Thoughts Of A Fool
TTITLE8=The King Of Broken Hearts
TTITLE9=Where The Sidewalk Ends
TTITLE10=Heartland (Main Title Sequence)
EXTD=YEAR: 1992 ID3G:   2
EXTT0=
EXTT1=
EXTT2=
EXTT3=
EXTT4=
EXTT5=
EXTT6=
EXTT7=
EXTT8=
EXTT9=
EXTT10=
PLAYORDER=
